<svg xmlns="http://www.w3.org/2000/svg" viewBox="0 0 64 64">
  <rect width="64" height="64" rx="14" fill="#fbf7ee"/>
  <path d="M12 31L32 14l20 17" fill="none" stroke="#123f2a" stroke-width="6" stroke-linecap="round" stroke-linejoin="round"/>
  <path d="M18 30v17M46 30v17" fill="none" stroke="#123f2a" stroke-width="5" stroke-linecap="round"/>
  <rect x="28" y="22" width="4" height="4" rx="1" fill="#123f2a"/><rect x="34" y="22" width="4" height="4" rx="1" fill="#123f2a"/><rect x="28" y="28" width="4" height="4" rx="1" fill="#123f2a"/><rect x="34" y="28" width="4" height="4" rx="1" fill="#123f2a"/>
  <path d="M24 42c0-5 4-8 8-8s8 3 8 8v4c0 4-3 7-8 7s-8-3-8-7v-4z" fill="#6f8565"/>
  <path d="M22 41h20" stroke="#6f8565" stroke-width="4" stroke-linecap="round"/>
  <path d="M32 48c-3-3-6-5-6-8 0-2 2-3 4-3 1 0 2 1 2 2 1-1 2-2 3-2 2 0 4 1 4 3 0 3-4 6-7 8z" fill="#fbf7ee"/>
  <path d="M47 31c3 2 0 4 3 6" fill="none" stroke="#c77d59" stroke-width="3" stroke-linecap="round"/>
</svg>